<svg id="visual" viewBox="0 0 900 600" width="900" height="600" xmlns="http://www.w3.org/2000/svg" xmlns:xlink="http://www.w3.org/1999/xlink" version="1.1"><rect x="0" y="0" width="900" height="600" fill="#001220"></rect><path d="M0 403L21.5 410.2C43 417.3 86 431.7 128.8 438C171.7 444.3 214.3 442.7 257.2 430C300 417.3 343 393.7 385.8 384.2C428.7 374.7 471.3 379.3 514.2 378C557 376.7 600 369.3 642.8 375.2C685.7 381 728.3 400 771.2 400.3C814 400.7 857 382.3 878.5 373.2L900 364L900 601L878.5 601C857 601 814 601 771.2 601C728.3 601 685.7 601 642.8 601C600 601 557 601 514.2 601C471.3 601 428.7 601 385.8 601C343 601 300 601 257.2 601C214.3 601 171.7 601 128.8 601C86 601 43 601 21.5 601L0 601Z" fill="#182f44"></path><path d="M0 458L21.5 456.8C43 455.7 86 453.3 128.8 445.3C171.7 437.3 214.3 423.7 257.2 415.2C300 406.7 343 403.3 385.8 411.2C428.7 419 471.3 438 514.2 448.3C557 458.7 600 460.3 642.8 458C685.7 455.7 728.3 449.3 771.2 450C814 450.7 857 458.3 878.5 462.2L900 466L900 601L878.5 601C857 601 814 601 771.2 601C728.3 601 685.7 601 642.8 601C600 601 557 601 514.2 601C471.3 601 428.7 601 385.8 601C343 601 300 601 257.2 601C214.3 601 171.7 601 128.8 601C86 601 43 601 21.5 601L0 601Z" fill="#14283f"></path><path d="M0 440L21.5 445.7C43 451.3 86 462.7 128.8 474.3C171.7 486 214.3 498 257.2 497.7C300 497.3 343 484.7 385.8 484.7C428.7 484.7 471.3 497.3 514.2 495C557 492.7 600 475.3 642.8 469.7C685.7 464 728.3 470 771.2 470.3C814 470.7 857 465.3 878.5 462.7L900 460L900 601L878.5 601C857 601 814 601 771.2 601C728.3 601 685.7 601 642.8 601C600 601 557 601 514.2 601C471.3 601 428.7 601 385.8 601C343 601 300 601 257.2 601C214.3 601 171.7 601 128.8 601C86 601 43 601 21.5 601L0 601Z" fill="#112239"></path><path d="M0 516L21.5 517.7C43 519.3 86 522.7 128.8 523.8C171.7 525 214.3 524 257.2 525.3C300 526.7 343 530.3 385.8 532.5C428.7 534.7 471.3 535.3 514.2 526.8C557 518.3 600 500.7 642.8 495.2C685.7 489.7 728.3 496.3 771.2 496.5C814 496.7 857 490.3 878.5 487.2L900 484L900 601L878.5 601C857 601 814 601 771.2 601C728.3 601 685.7 601 642.8 601C600 601 557 601 514.2 601C471.3 601 428.7 601 385.8 601C343 601 300 601 257.2 601C214.3 601 171.7 601 128.8 601C86 601 43 601 21.5 601L0 601Z" fill="#0e1c34"></path><path d="M0 532L21.5 537.3C43 542.7 86 553.3 128.8 552.2C171.7 551 214.3 538 257.2 538C300 538 343 551 385.8 554.7C428.7 558.3 471.3 552.7 514.2 546.2C557 539.7 600 532.3 642.8 535.3C685.7 538.3 728.3 551.7 771.2 557.8C814 564 857 563 878.5 562.5L900 562L900 601L878.5 601C857 601 814 601 771.2 601C728.3 601 685.7 601 642.8 601C600 601 557 601 514.2 601C471.3 601 428.7 601 385.8 601C343 601 300 601 257.2 601C214.3 601 171.7 601 128.8 601C86 601 43 601 21.5 601L0 601Z" fill="#0c152e"></path></svg>